<svg xmlns="http://www.w3.org/2000/svg" id="Layer_1" width="449.24mm" height="519.95" viewBox="0 0 1273.43 389.97"><defs><style>.cls-3{stroke-width:0;fill:#006}</style></defs><path d="M582.36 118.9c1.28 0 2.4-.4 3.35-1.19s1.54-1.83 1.76-3.12c.23-1.28 0-2.33-.66-3.14-.67-.81-1.64-1.21-2.92-1.21s-2.4.4-3.35 1.21-1.54 1.86-1.77 3.14 0 2.32.66 3.12c.67.79 1.65 1.19 2.93 1.19M587.92 130.95q-1.47-3.66-4.5-5.85c-2.02-1.46-4.26-2.19-6.71-2.19s-4.95.73-7.49 2.19-4.72 3.42-6.56 5.85c-1.84 2.44-3 5.01-3.48 7.72-.45 2.57-.22 4.9.69 7.02.91 2.11 2.38 3.79 4.4 5.01 2.02 1.23 4.43 1.84 7.21 1.84s5.4-.61 7.86-1.84 4.51-2.9 6.17-5.01 2.71-4.45 3.16-7.02c.48-2.71.23-5.28-.75-7.72m-11.44 7.72c-.21 1.19-.57 2.06-1.08 2.6q-.765.81-2.07.81c-1.305 0-1.46-.27-1.78-.81s-.37-1.41-.16-2.6c.12-.69.43-1.45.92-2.28s1-1.54 1.52-2.14.87-.89 1.05-.89.43.3.74.89c.31.6.56 1.31.76 2.14s.24 1.59.11 2.28ZM572.49 118.9c1.28 0 2.4-.4 3.35-1.19s1.54-1.83 1.76-3.12c.23-1.28 0-2.33-.66-3.14-.67-.81-1.64-1.21-2.92-1.21s-2.4.4-3.35 1.21-1.54 1.86-1.77 3.14 0 2.32.66 3.12c.67.79 1.64 1.19 2.93 1.19M661.3 111.3l-5.43 30.78h-9.32l.27-1.52c.59-3.36.26-6.39-1-9.08s-3.27-4.8-6.01-6.31c-2.75-1.52-5.97-2.28-9.65-2.28q-6.45 0-12.9 3.09l3.61 9.65c2.4-1.52 4.88-2.28 7.45-2.28q3.42 0 5.16 1.95c1.16 1.3 1.55 3.05 1.16 5.26l-.27 1.52h-27.53l3.29-18.64h-12.19l-4.58 25.96c-.36 2.06-.98 3.49-1.84 4.28s-2.22 1.21-4.07 1.25l-.37 10.41c4.28-.29 7.98-1.56 11.11-3.82q4.695-3.39 6.54-8.97h61.51l7.27-41.25h-12.19ZM673.27 152.54h12.19l7.28-41.24h-12.2zM732.17 115.81c1.28 0 2.4-.4 3.35-1.19s1.54-1.83 1.76-3.12c.23-1.28 0-2.33-.66-3.14-.67-.81-1.64-1.21-2.92-1.21s-2.4.4-3.35 1.21-1.54 1.86-1.77 3.14 0 2.32.66 3.12c.67.8 1.64 1.19 2.93 1.19M722.3 115.81c1.28 0 2.4-.4 3.35-1.19s1.54-1.83 1.76-3.12c.23-1.28 0-2.33-.66-3.14-.67-.81-1.64-1.21-2.92-1.21s-2.4.4-3.35 1.21-1.54 1.86-1.77 3.14 0 2.32.67 3.12 1.64 1.19 2.93 1.19ZM751.8 156.9c-1.28 0-2.4.4-3.35 1.21s-1.54 1.85-1.77 3.14c-.23 1.28 0 2.32.66 3.12.67.79 1.64 1.19 2.93 1.19s2.4-.4 3.35-1.19c.95-.8 1.54-1.83 1.76-3.12.23-1.28 0-2.33-.66-3.14-.67-.81-1.64-1.21-2.92-1.21M761.67 156.9c-1.28 0-2.4.4-3.35 1.21s-1.54 1.85-1.77 3.14c-.23 1.28 0 2.32.66 3.12.67.79 1.65 1.19 2.93 1.19s2.4-.4 3.35-1.19c.95-.8 1.54-1.83 1.76-3.12.23-1.28 0-2.33-.66-3.14-.67-.81-1.64-1.21-2.92-1.21M828.35 111.3l-5.43 30.78h-6.29c-1.05 0-1.81-.06-2.3-.19-.48-.13-.84-.35-1.07-.68s-.46-.88-.68-1.68c-.4-3.25-1.34-6.13-2.81-8.65q-2.205-3.765-5.85-5.88c-2.43-1.41-5.21-2.11-8.35-2.11-4.01 0-7.58 1.25-10.71 3.74q-4.695 3.735-6.45 8.16c-1.17 2.95-1.81 4.54-1.93 4.8-.36.83-.81 1.46-1.33 1.87-.53.42-1.24.62-2.14.62h-4.88c-1.37 0-2.22-.54-2.53-1.63.24-.94.41-1.68.5-2.22l2.61-14.8h-12.19l-2.6 14.74c-.24 1.34-.67 2.32-1.31 2.95s-1.5.95-2.58.95h-5.42c-1.08 0-1.83-.32-2.25-.95-.41-.63-.5-1.62-.27-2.95l3.45-19.57h-12.19l-.29 1.63h-6.61c-3.07 0-5.98.68-8.73 2.03s-5.05 3.21-6.91 5.56-3.04 4.95-3.54 7.81-.24 5.47.79 7.83q1.545 3.555 4.89 5.61c2.23 1.37 4.85 2.06 7.85 2.06s6.75-.78 10.82-2.33c1.95 2.49 5 3.74 9.15 3.74h9.43c3.65 0 6.82-.98 9.51-2.93 1.68 1.95 4.34 2.93 7.99 2.93h9.38c2.75 0 5.06-.83 6.94-2.49a23.3 23.3 0 0 0 10.56 2.49c1.73 0 3.7-.16 5.89-.49 2.19-.32 4.41-.81 6.65-1.46 2.26 1.3 5.15 1.95 8.65 1.95h17.5l7.27-41.25h-12.19Zm-98.47 26.94-.1.6c-2.31 1.23-4.26 1.84-5.85 1.84q-2.22 0-3.51-1.44c-.86-.96-1.16-2.16-.91-3.6.25-1.41.97-2.58 2.17-3.52s2.53-1.41 4.02-1.41h5.53l-1.33 7.53Zm66.7 3.84c-1.3 0-2.51-.19-3.61-.57-1.11-.38-2.46-1.07-4.05-2.09 1.51-4.05 3.29-6.07 5.35-6.07 1.37 0 2.61.8 3.73 2.38 1.11 1.59 1.85 3.6 2.22 6.02-1.34.22-2.55.32-3.63.32ZM910.62 111.3l-5.43 30.78h-13.88c3.36-3.07 5.3-6.09 5.82-9.05.38-2.17-.02-4.12-1.22-5.85-1.19-1.73-3.05-3.08-5.58-4.04-2.52-.96-5.5-1.44-8.93-1.44-1.73 0-3.55.15-5.44.43l-12.73 15.61c.41 1.55.99 3 1.73 4.34h-10.62l5.43-30.78h-12.2l-7.27 41.25h24.66c3.21 0 6.71-.58 10.5-1.73 3.08 1.16 6.59 1.73 10.53 1.73h29.54l7.27-41.25h-12.19Zm-27.8 24.58c-1.26.99-2.82 1.96-4.68 2.9q-2.415-2.28-3.15-6.12c1.25-.32 2.67-.49 4.26-.49 1.19 0 2.22.07 3.08.22s1.51.31 1.95.49.65.31.64.38c-.13.76-.83 1.63-2.09 2.63ZM922.59 152.54h12.19l7.28-41.24h-12.2zM981.52 125.09c-2.02-1.46-4.26-2.19-6.71-2.19s-4.95.73-7.49 2.19-4.72 3.42-6.56 5.85c-1.84 2.44-3 5.01-3.48 7.72-.45 2.57-.22 4.9.69 7.02.91 2.11 2.38 3.79 4.4 5.01 2.02 1.23 4.43 1.84 7.21 1.84s5.4-.61 7.86-1.84 4.51-2.9 6.17-5.01 2.71-4.45 3.16-7.02c.48-2.71.23-5.28-.75-7.72q-1.47-3.66-4.5-5.85m-6.95 13.58c-.21 1.19-.57 2.06-1.08 2.6q-.765.81-2.07.81c-1.305 0-1.46-.27-1.78-.81s-.37-1.41-.16-2.6c.12-.69.43-1.45.92-2.28s1-1.54 1.52-2.14.87-.89 1.05-.89.43.3.74.89c.31.6.56 1.31.76 2.14s.24 1.59.11 2.28ZM970.59 118.9c1.28 0 2.4-.4 3.35-1.19s1.54-1.83 1.76-3.12c.23-1.28 0-2.33-.66-3.14-.67-.81-1.64-1.21-2.92-1.21s-2.4.4-3.35 1.21-1.54 1.86-1.77 3.14 0 2.32.66 3.12c.67.79 1.64 1.19 2.93 1.19M980.45 118.9c1.28 0 2.4-.4 3.35-1.19s1.54-1.83 1.76-3.12c.23-1.28 0-2.33-.66-3.14-.67-.81-1.64-1.21-2.92-1.21s-2.4.4-3.35 1.21-1.54 1.86-1.77 3.14 0 2.32.66 3.12c.67.79 1.65 1.19 2.93 1.19M1012.63 115.58c1.66 0 3.11-.52 4.34-1.54 1.23-1.03 1.99-2.38 2.28-4.04s0-3.02-.85-4.06c-.86-1.05-2.13-1.57-3.79-1.57s-3.11.52-4.34 1.57-2 2.4-2.29 4.06 0 3.01.86 4.04c.87 1.03 2.13 1.54 3.79 1.54M1057.9 118.89c1.66 0 3.11-.51 4.34-1.54s1.99-2.38 2.28-4.04 0-3.02-.85-4.07c-.86-1.05-2.13-1.57-3.79-1.57s-3.11.52-4.34 1.57-2 2.4-2.29 4.07c-.29 1.66 0 3.01.86 4.04.87 1.03 2.13 1.54 3.79 1.54M1048.58 124.87c-2.75 1.32-5.05 3.13-6.92 5.42s-3.05 4.85-3.55 7.67c-.24 1.37-.29 2.75-.13 4.12h-9.32c-1.66 0-2.83-.14-3.5-.43s-1.15-.87-1.43-1.73-.62-2.51-1.03-4.93l-2.68-16.15-12.13 3.31 2.67 16.21c.12.94.32 1.99.58 3.14-2.75.4-5.52.6-8.34.6-4.08 0-7.93-.43-11.53-1.3l-1.89 10.73c3.78.69 7.71 1.03 11.8 1.03 5.75 0 11.22-.63 16.43-1.9 2.38 1.26 5.45 1.9 9.21 1.9h39.73l4.45-25.26c-5.01-2.93-9.61-4.39-13.81-4.39q-4.5 0-8.61 1.98Zm7.62 17.16h-3.79c-.83-.22-1.43-.7-1.81-1.44s-.47-1.63-.29-2.68c.24-1.37.83-2.47 1.78-3.31.94-.83 2.08-1.25 3.42-1.25.98 0 1.71.05 2.19.16l-1.5 8.51ZM1108.14 119.48c1.66 0 3.11-.51 4.34-1.54s1.99-2.38 2.28-4.04 0-3.02-.85-4.07c-.86-1.05-2.13-1.57-3.79-1.57s-3.11.52-4.34 1.57-2 2.4-2.29 4.07c-.29 1.66 0 3.01.86 4.04.87 1.03 2.13 1.54 3.79 1.54" class="cls-3"></path><path d="m1126.99 111.3-5.43 30.78h-8.62c-1.37 0-2.22-.54-2.53-1.63.24-.94.41-1.68.5-2.22l2.61-14.8h-12.19l-2.6 14.74c-.24 1.34-.67 2.32-1.31 2.95s-1.5.95-2.58.95h-8.83l5.43-30.78h-12.2l-7.27 41.25h23.04c3.65 0 6.82-.98 9.51-2.93 1.68 1.95 4.34 2.93 7.99 2.93h19.4l7.27-41.25h-12.19ZM1146.23 111.3l-7.28 41.24h12.2l7.27-41.24zM647.24 179.18l-26.71 51.92H602.9l-2.3-31.03-13.47 31.03H569.5l-8.25-51.92h18.37l2.36 34.07 14.3-34.07h16.74l2.44 34.07 14.23-34.07zM665.6 190.58l-7.14 40.51h-16.67l7.14-40.51zm.88-17.63c1.3 1.58 1.74 3.6 1.3 6.07s-1.58 4.49-3.44 6.07-4.02 2.37-6.49 2.37-4.35-.79-5.66-2.37c-1.3-1.58-1.73-3.6-1.3-6.07.44-2.47 1.58-4.49 3.44-6.07s4.02-2.37 6.49-2.37 4.35.79 5.65 2.37ZM710.02 191.77c1.97 1.29 3.37 3.09 4.19 5.41s.97 5.01.43 8.07l-4.56 25.85h-16.67l3.71-21.04c.3-1.68.09-3.02-.62-4.04-.71-1.01-1.78-1.52-3.21-1.52-1.63 0-3.03.59-4.2 1.78-1.17 1.18-1.93 2.77-2.28 4.74l-3.54 20.07H666.6l7.14-40.51h16.67l-1.02 5.78c1.76-2.12 3.78-3.74 6.08-4.85 2.29-1.11 4.75-1.67 7.37-1.67 2.81 0 5.21.64 7.18 1.93M769.4 176.14l-9.69 54.96h-16.67l.72-4.07c-3.21 3.11-6.92 4.67-11.12 4.67-3.7 0-6.81-.86-9.32-2.59s-4.25-4.19-5.22-7.37c-.97-3.19-1.08-6.9-.33-11.15q1.095-6.225 4.14-10.89c2.03-3.11 4.56-5.5 7.6-7.18s6.38-2.52 10.04-2.52c2.17 0 4.1.41 5.78 1.22s3.06 1.99 4.12 3.52l3.28-18.59h16.67Zm-25.45 40.59c1.34-1.43 2.22-3.33 2.63-5.7.42-2.37.21-4.27-.62-5.7s-2.17-2.15-3.99-2.15-3.42.72-4.79 2.15q-2.04 2.145-2.67 5.7t.66 5.7c.86 1.43 2.2 2.15 4.03 2.15s3.41-.71 4.75-2.15M807.02 192.55q4.74 2.55 6.72 7.26c1.32 3.14 1.61 6.8.88 11-.74 4.2-2.33 7.86-4.75 11-2.43 3.14-5.53 5.57-9.29 7.3s-7.94 2.59-12.53 2.59-8.46-.86-11.62-2.59c-3.15-1.73-5.39-4.16-6.71-7.3-1.32-3.13-1.62-6.8-.88-11s2.32-7.86 4.75-11 5.52-5.55 9.28-7.26 7.93-2.56 12.52-2.56 8.47.85 11.62 2.56Zm-18.73 12.77q-2.04 2.145-2.67 5.7t.66 5.7c.86 1.43 2.2 2.15 4.03 2.15s3.42-.71 4.79-2.15q2.04-2.145 2.67-5.7t-.66-5.7c-.86-1.43-2.2-2.15-4.03-2.15s-3.42.72-4.79 2.15M834.32 190.58l2.19 24.15 10.48-24.15h15.41l2.19 24.15 10.63-24.15h16.07l-21.96 40.51h-16.29l-2.02-21.33-9.76 21.33h-16.29l-7.52-40.51h16.89ZM998.18 179.18l-26.71 51.92h-17.63l-2.3-31.03-13.47 31.03h-17.63l-8.25-51.92h18.37l2.36 34.07 14.3-34.07h16.74l2.44 34.07 14.23-34.07zM1026.33 192.55c3.15 1.7 5.4 4.12 6.72 7.26s1.62 6.8.88 11-2.32 7.86-4.75 11-5.53 5.57-9.29 7.3-7.94 2.59-12.53 2.59-8.46-.86-11.62-2.59c-3.15-1.73-5.39-4.16-6.71-7.3-1.32-3.13-1.61-6.8-.88-11 .74-4.2 2.32-7.86 4.75-11s5.52-5.55 9.28-7.26c3.76-1.7 7.93-2.56 12.52-2.56s8.47.85 11.62 2.56Zm-18.73 12.77q-2.04 2.145-2.67 5.7t.66 5.7c.86 1.43 2.2 2.15 4.03 2.15s3.42-.71 4.79-2.15q2.04-2.145 2.67-5.7t-.66-5.7c-.86-1.43-2.2-2.15-4.03-2.15s-3.42.72-4.79 2.15M1064.46 191.58q3.45-1.74 7.38-1.74l-2.65 15.04c-1.06-.15-2.11-.22-3.14-.22-2.87 0-5.22.63-7.07 1.89s-2.97 3-3.37 5.22l-3.41 19.33h-16.67l7.14-40.51h16.67l-1.04 5.92c1.81-2.12 3.86-3.77 6.16-4.93M1096.11 176.14l-9.69 54.96h-16.67l9.69-54.96zM1147.22 176.14l-9.69 54.96h-16.67l.72-4.07c-3.21 3.11-6.92 4.67-11.12 4.67-3.7 0-6.81-.86-9.32-2.59s-4.25-4.19-5.22-7.37c-.97-3.19-1.08-6.9-.33-11.15q1.095-6.225 4.14-10.89c2.03-3.11 4.56-5.5 7.6-7.18s6.38-2.52 10.04-2.52c2.17 0 4.1.41 5.78 1.22s3.06 1.99 4.12 3.52l3.28-18.59h16.67Zm-25.45 40.59c1.34-1.43 2.22-3.33 2.63-5.7.42-2.37.21-4.27-.62-5.7s-2.17-2.15-3.99-2.15-3.42.72-4.79 2.15q-2.04 2.145-2.67 5.7t.66 5.7c.86 1.43 2.2 2.15 4.03 2.15s3.41-.71 4.75-2.15" class="cls-3"></path><path d="m434.57 175.98-.37-.6c-15.12 5.18-30.44 7.48-45.91 7.24-28.27-.43-57.05-9.36-86.09-24.79-17.32-10.15-30.27-24.72-43.37-42.76l-58.25 34.27c22.13 39.82 67.52 63.12 115.83 62.26 2.33-.05 4.7-.15 7.02-.32l1.23 25.99c41.91 8.26 95.1 8.68 135.08-13.84 0 0 .8-.44 2.1-1.19l-27.26-46.28Z" style="stroke-width:0;fill-rule:evenodd;fill:#006"></path><path d="M510.66 115.99c-.94 1.42-1.85 2.76-2.81 4.13-19 26.98-44.04 45.15-73.65 55.26l-11.67-19.84c-1.74 1.07-3.53 2.12-5.32 3.11-37.03 20.33-80.5 18.75-115.01-.81l30.47-45.06c42.63 28.83 100.27 18.35 130.14-23.15.96-1.33 1.9-2.72 2.79-4.1L510.66 116Z" style="fill:#00bf71;stroke-width:0;fill-rule:evenodd"></path><path d="M327.31 301.14c-76.26 1.78-148.06-42.69-189.13-106.54-20.38-30.47-33.08-70.17-35.22-109.47h76.94c.68 11.56 2.79 22.71 6.17 33.27 3.53 11.02 8.43 21.4 14.5 30.95 2.24 3.8 4.59 7.5 7.05 11.07v.01c28.28 41.19 70.77 67.72 116.91 76.83l2.76 63.88Z" style="stroke-width:0;fill-rule:evenodd;fill:#e96032"></path></svg>